<svg width="24" height="25" viewBox="0 0 24 25" fill="none" xmlns="http://www.w3.org/2000/svg">
<path d="M15.5 14.5319H14.71L14.43 14.2562C15.4439 13.0552 16.0011 11.5219 16 9.93617C16 8.62324 15.6188 7.33979 14.9046 6.24813C14.1903 5.15646 13.1752 4.30562 11.9874 3.80318C10.7997 3.30074 9.49279 3.16928 8.23192 3.42542C6.97104 3.68156 5.81285 4.3138 4.90381 5.24218C3.99477 6.17056 3.3757 7.3534 3.1249 8.6411C2.87409 9.9288 3.00282 11.2635 3.49479 12.4765C3.98676 13.6895 4.81988 14.7263 5.8888 15.4557C6.95772 16.1851 8.21442 16.5745 9.5 16.5745C11.11 16.5745 12.59 15.9719 13.73 14.9711L14 15.257V16.0638L19 21.16L20.49 19.6383L15.5 14.5319ZM9.5 14.5319C7.01 14.5319 5 12.4791 5 9.93617C5 7.39319 7.01 5.34042 9.5 5.34042C11.99 5.34042 14 7.39319 14 9.93617C14 12.4791 11.99 14.5319 9.5 14.5319Z" fill="#F5F5F5"/>
</svg>
